<svg xmlns="http://www.w3.org/2000/svg" viewBox="0 0 96 96" role="img" aria-labelledby="title">
  <title>Blog icon</title>
  <rect width="96" height="96" rx="8" fill="#f3efe6"/>
  <rect x="1.5" y="1.5" width="93" height="93" rx="6.5" fill="none" stroke="#d8d0c3" stroke-width="3"/>

  <g opacity="0.35">
    <circle cx="26" cy="24" r="8" fill="#d6d0c4"/>
    <circle cx="60" cy="18" r="6" fill="#e1dbcf"/>
    <circle cx="73" cy="54" r="9" fill="#ddd5c8"/>
    <circle cx="33" cy="68" r="11" fill="#e5ddd0"/>
  </g>

  <g fill="none" stroke="#28211e" stroke-linecap="round" stroke-linejoin="round">
    <path d="M46 78 C47 70, 47 61, 48 52" stroke-width="3.6"/>
    <path d="M48 52 C43 46, 36 41, 27 35" stroke-width="2.8"/>
    <path d="M48 52 C53 45, 59 38, 68 28" stroke-width="2.8"/>
    <path d="M48 52 C49 45, 50 38, 51 29" stroke-width="2.5"/>
    <path d="M41 45 C36 43, 31 40, 24 37" stroke-width="2.1"/>
    <path d="M39 47 C35 50, 31 54, 26 61" stroke-width="2.1"/>
    <path d="M56 43 C62 39, 67 34, 74 27" stroke-width="2.1"/>
    <path d="M58 46 C63 47, 70 50, 77 55" stroke-width="2.1"/>
    <path d="M49 38 C46 33, 41 28, 34 20" stroke-width="1.9"/>
    <path d="M52 37 C58 31, 64 24, 70 16" stroke-width="1.9"/>
    <path d="M51 31 C54 25, 58 20, 63 14" stroke-width="1.7"/>
    <path d="M35 58 C31 61, 27 65, 22 71" stroke-width="1.7"/>
    <path d="M62 52 C67 56, 71 60, 75 67" stroke-width="1.7"/>
    <path d="M31 35 C28 30, 25 25, 21 18" stroke-width="1.6"/>
    <path d="M68 28 C74 27, 79 26, 85 25" stroke-width="1.6"/>
  </g>

  <g fill="#7b5e3d" opacity="0.75">
    <circle cx="47.5" cy="80.5" r="2.4"/>
    <circle cx="45" cy="75.5" r="1.6"/>
    <circle cx="49.5" cy="73.5" r="1.6"/>
  </g>

  <g>
    <circle cx="20" cy="17" r="2.4" fill="#58799c"/>
    <circle cx="26" cy="36" r="2.3" fill="#d0a526"/>
    <circle cx="31" cy="22" r="1.9" fill="#3f5f86"/>
    <circle cx="23" cy="71" r="2.1" fill="#d7a73a"/>
    <circle cx="38" cy="18" r="1.8" fill="#c49a2e"/>
    <circle cx="63" cy="14" r="2.4" fill="#35557f"/>
    <circle cx="71" cy="16" r="2" fill="#d9aa33"/>
    <circle cx="75" cy="28" r="2.3" fill="#47688f"/>
    <circle cx="78" cy="54" r="2.1" fill="#d3a02b"/>
    <circle cx="72" cy="68" r="2" fill="#547395"/>
    <circle cx="60" cy="38" r="1.8" fill="#d7a83c"/>
    <circle cx="55" cy="29" r="1.7" fill="#4c6e93"/>
    <circle cx="32" cy="57" r="2" fill="#58779a"/>
  </g>
</svg>
